<svg xmlns="http://www.w3.org/2000/svg" viewBox="0 0 720 720"><g transform="translate(1837.133 530.505)"><path fill-rule="evenodd" d="M-1631.633-416.505s48.997-84.003 155.002-84.003c106.005 0 153.998 84.003 153.998 84.003s-31.997-114-153.998-114c-122.002 0-155.002 114-155.002 114zm309 492s-48.997 84.003-155.002 84.003c-106.005 0-153.998-84.003-153.998-84.003s31.996 114 153.998 114 155.002-114 155.002-114zm91.5-400.5s84.003 48.997 84.003 155.002c0 106.005-84.003 153.998-84.003 153.998s114-31.996 114-153.998c0-122.001-114-155.002-114-155.002zm-492 309s-84.003-48.996-84.003-155.002c0-106.005 84.003-153.998 84.003-153.998s-114 31.997-114 153.998c0 122.002 114 155.002 114 155.002z"/><path d="m-1477.127-203.515-12.502-28.99v31.998l.121-.05-22.626-22.626 11.675 29.338-29.352-11.661 22.626 22.625.05-.12h-31.998l29.007 12.483-29.007 12.514h31.998l-.05-.122-22.627 22.626 29.349-11.683-11.672 29.36 22.626-22.626-.127-.053v31.997l12.507-29.014 12.491 29.014v-31.997l-.131.054 22.626 22.626-11.653-29.36 29.33 11.684-22.627-22.626-.039.114h31.999l-28.997-12.506 28.997-12.493h-31.999l.052.127 22.627-22.626-29.346 11.663 11.669-29.34-22.626 22.626.125.052v-31.998zm0 8c13.827-.019 24.994 11.206 25.001 25.003.01 13.797-11.176 24.983-25.002 25-13.826.017-24.998-11.206-25.002-25.002 0-13.795 11.176-24.981 25.003-25z" color="#000" font-family="sans-serif" font-weight="400" overflow="visible" style="line-height:normal;text-indent:0;text-align:start;text-decoration-line:none;text-decoration-style:solid;text-decoration-color:#000;text-transform:none;block-progression:tb;white-space:normal;isolation:auto;mix-blend-mode:normal;solid-color:#000;solid-opacity:1"/><path d="M-1476.428-467.505c0 223.496-73.675 296.996-297.705 297 224.03-.004 297.705 73.496 297.705 297 0-223.504 73.674-297.004 296.295-299.781-222.62 2.777-296.295-70.723-296.295-294.219zm0 166c6.511 51 80.194 124.492 131.31 131-51.117 6.5-124.79 80-131.27 130.673-6.56-50.673-80.234-124.173-131.351-130.673 51.117-6.508 124.8-80 131.31-131z" color="#000" font-family="sans-serif" font-weight="400" overflow="visible" style="line-height:normal;text-indent:0;text-align:start;text-decoration-line:none;text-decoration-style:solid;text-decoration-color:#000;text-transform:none;block-progression:tb;white-space:normal;isolation:auto;mix-blend-mode:normal;solid-color:#000;solid-opacity:1"/><circle cx="-1477.133" cy="-170.505" r="142.503" fill="none" stroke="#000" stroke-width="19.995"/></g></svg>
